<?xml version="1.0" standalone="no"?>
<!DOCTYPE svg PUBLIC "-//W3C//DTD SVG 20010904//EN"
 "http://www.w3.org/TR/2001/REC-SVG-20010904/DTD/svg10.dtd">
<svg version="1.0" xmlns="http://www.w3.org/2000/svg"
 width="512.000000pt" height="512.000000pt" viewBox="0 0 512.000000 512.000000"
 preserveAspectRatio="xMidYMid meet">
<metadata>
Created by potrace 1.14, written by Peter Selinger 2001-2017
</metadata>
<g transform="translate(0.000000,512.000000) scale(0.100000,-0.100000)"
fill="#000000" stroke="none">
<path d="M2200 4463 c-195 -340 -368 -632 -385 -650 -24 -25 -303 -192 -652
-391 l-43 -24 -1 -361 c0 -199 -4 -387 -8 -417 -6 -49 -49 -129 -369 -681
-199 -345 -362 -630 -362 -633 0 -3 331 -6 735 -6 l734 0 118 -69 c65 -37 225
-129 356 -204 l237 -136 238 136 c130 75 290 167 355 204 l118 69 736 0 c621
0 734 2 730 14 -3 7 -61 110 -130 227 -68 118 -230 399 -361 626 l-237 411 -1
324 c-1 178 -3 362 -5 409 l-4 87 -137 80 c-75 43 -227 131 -337 195 -111 64
-210 126 -222 139 -17 19 -332 556 -457 779 -94 168 -282 489 -286 489 -3 0
-165 -278 -360 -617z m545 135 c99 -172 224 -389 278 -482 90 -157 105 -186
92 -186 -4 0 -375 212 -445 254 -19 12 -52 30 -73 41 l-38 20 -47 -26 c-26
-14 -149 -85 -274 -157 -125 -73 -230 -132 -233 -132 -13 0 2 31 101 202 58
101 145 251 193 333 48 83 125 216 172 297 46 81 86 148 89 148 3 0 86 -141
185 -312z m-1645 -2567 l0 -317 275 -159 c151 -87 275 -162 275 -167 0 -4
-252 -8 -560 -8 -410 0 -560 3 -560 11 0 7 100 185 223 398 123 212 247 428
276 478 30 51 57 90 62 87 5 -3 9 -148 9 -323z m2946 311 c10 -16 326 -561
483 -834 33 -58 61 -111 61 -117 0 -8 -165 -11 -560 -11 -308 0 -560 4 -560 8
0 5 100 66 223 137 122 70 246 142 275 159 l52 31 0 322 c0 178 3 323 8 323 4
0 12 -8 18 -18z"/>
<path d="M2165 4823 c-208 -38 -404 -103 -600 -198 -513 -249 -913 -674 -1129
-1197 -199 -482 -227 -1002 -81 -1507 57 -200 47 -199 149 -22 l88 152 -20
102 c-135 675 71 1363 552 1842 224 224 505 398 788 489 l103 33 89 152 c48
84 87 153 85 155 -2 1 -13 1 -24 -1z"/>
<path d="M2933 4815 c11 -27 158 -280 170 -291 7 -6 62 -28 122 -48 676 -229
1189 -818 1325 -1524 50 -257 49 -526 -1 -790 l-21 -112 88 -155 c103 -179 88
-181 149 20 134 442 121 957 -35 1398 -260 736 -883 1301 -1630 1480 -158 37
-173 40 -167 22z"/>
<path d="M790 1102 c0 -16 196 -216 288 -293 338 -283 724 -457 1164 -525 137
-22 456 -24 598 -6 241 32 481 103 700 208 255 122 447 259 653 466 75 76 137
143 137 148 0 6 -66 10 -170 10 l-171 0 -87 -76 c-240 -210 -542 -368 -849
-443 -176 -43 -288 -55 -493 -55 -205 0 -317 12 -493 55 -306 75 -609 233
-849 443 l-87 76 -171 0 c-93 0 -170 -3 -170 -8z"/>
</g>
</svg>
